<svg version="1" xmlns="http://www.w3.org/2000/svg" width="933.333" height="933.333" viewBox="0 0 700.000000 700.000000"><path d="M287.8 11.5c-.2.1-3.4.5-7.3.9-3.8.3-9.7 1.1-13 1.7-3.3.5-6.9 1.2-8 1.4-1.1.1-6.6 1.4-12.1 2.9-51.9 13.1-98.3 43.5-131.5 86.2-28.2 36.2-46.8 84.8-49.4 129.7-.4 5.6-.8 11.7-.9 13.4-.2 1.9.2 3.4.8 3.4.6.1 12.6.3 26.6.4 14 .2 26 .3 26.5.4.7.1 1 28.9.9 84.4 0 46.3.3 88.2.8 93.2 5.3 57.3 46.8 106.9 102.6 122.6 4.1 1.1 8.7 2.3 10.1 2.5 1.4.2 3.5.6 4.6.9 2.1.4 2.1.7 2.1 66.7v66.3l49.2.3 49.2.2v-54.5c0-42.9-.3-54.5-1.2-54.6-1.6-.1-15.5-.1-18.5 0l-2.3.1v87l-27.2-.2-27.3-.3v-53.8c0-29.7.3-54.1.7-54.3.4-.3 17.6-.5 38.3-.4H339V10.9l-25.5.2c-14 .1-25.6.3-25.7.4zm29 383.9l-.3 73.6-6.1-2.9c-6.6-3.1-9.1-4.9-13.6-9.6-7-7.2-11.7-17.5-12-26-.1-1.9-.4-3.6-.7-3.6-1.6-.3-19.8-.5-20.7-.1-1.4.4-.8 7.2 1.2 15.5 3.7 15.2 13.8 29.5 27.3 38.6 7 4.7 18.5 9.4 24.4 10 .4.1.7 10.3.7 22.7v22.5l-33.2-.2c-18.2-.1-34.8-.5-36.7-1-2-.4-5.4-1-7.6-1.4-5.1-.7-11.5-2.4-13.7-3.6-1-.5-2.2-.9-2.8-.9-2.1 0-17.6-7.5-24.5-11.8-25.1-15.8-44.8-42.4-52-70.2-1.9-7.1-2-7.8-3.3-16.5-.6-3.3-1-49-1-103.2-.1-90.9 0-97.3 1.6-97.4.9 0 6.9-.2 13.2-.4 11.3-.4 21.6-1.1 27.5-2 1.7-.2 4.8-.6 7-.9 16.8-2.2 40.5-8.3 59-15.3 21.4-8.1 38.1-16.7 57.5-29.6l8.5-5.6.3 72.9c.1 40.1.1 106 0 146.4z"/><path d="M223.2 296.1c-9.6 1.8-18.6 9-23.4 18.8-1.9 3.7-2.3 6.3-2.3 13.1 0 9.7 2.1 15.4 8.1 22 19.8 21.9 56.7 7.7 56.6-21.9-.1-20.6-18.4-35.7-39-32zm14.1 24.8c4.3 4.2 4.1 10.5-.4 14.9-2.7 2.6-3.8 3-7.6 2.8-5.6-.3-9.3-3.7-9.9-9.2-.6-5 1.2-8.4 5.6-10.7 4.4-2.2 8.5-1.4 12.3 2.2zM361 21.9V33h22v43.5h-22.1l.3 11 .3 11h43l.1-32.5.1-32.5 10.9-.3 10.9-.3.1 43.3c0 23.8-.3 43.5-.7 43.8-.4.3-15.2.5-32.8.4l-32.1-.1v22.2l30.8-.2c16.9-.1 36.6-.2 43.7-.2l13-.1-.1-53.8c0-29.5.1-54 .3-54.3.3-.7 15.6 1.6 17.1 2.5.5.3 2.3.8 4.1 1.1 4.6.8 17.6 6.1 25.1 10.2 32.9 18.2 56.1 51.2 61.4 87.3.7 4.7 1.6 28.7 1.6 42.8v8.3l10.8-.3 10.7-.3-.1-20.5c0-30.8-1.5-41.8-8.1-59.5-11.9-31.8-31.2-55.6-59.8-73.5-7.2-4.5-25-13-27.3-13-.7 0-2-.4-3-.9-2.2-1.2-12.4-3.8-17.7-4.6-2.3-.3-5.2-.8-6.5-1.2-1.4-.4-23.5-.8-49.2-1l-46.8-.4v11zM603.3 12.4c-2.3.6-4.8 1.7-5.5 2.3-.6.7-1.7 1.3-2.2 1.3-1.8.1-8.1 6.2-10.7 10.5-9.9 15.9-4.8 36.1 11.4 45.4l5.2 3v22.5c0 17.5.3 22.6 1.2 22.7 7.2.6 19.6.2 20.2-.6.4-.6.7-10.8.6-22.8l-.1-21.9L627 73c6.1-3.1 11.5-8.6 14.5-14.6 2.6-5.2 3-7 3-14.4 0-7.1-.4-9.4-2.6-14.1-6.7-14.3-23-21.7-38.6-17.5zM618.7 35c7 5.6 5.2 16.2-3.1 19-8.9 2.9-17-7.2-12.6-15.5 2.7-5.1 11.4-7 15.7-3.5zM602.4 142.8c-1 .7-1.4 108.1-.4 108.3 1.9.4 21 .4 21.1-.1.1-.3.2-24.9.3-54.6l.1-54.1-10.1-.1c-5.5 0-10.5.3-11 .6zM371.9 169v16c.1.6 4.4 1 10.9 1h10.8l.1-11v-11H372l-.1 5zM426.8 164.7c-.4.7-.3 18.3.1 20.5 0 .5 4.9.8 10.9.8h10.7v-21.5l-10.7-.3c-5.8-.1-10.8.1-11 .5z"/><path d="M481.6 164.8c-.3.4-.5 5.4-.4 11V186H503v-22h-10.4c-5.8 0-10.7.4-11 .8zM362 207.8c-.6.2-1 4.8-1 11.1v10.8l97.8.1c53.7 0 98 .1 98.5.1.9.1.3 199.5-.6 203.6-3.9 16.3-5.3 21.1-8.4 28.5-13.5 31.8-38.9 55.6-71.9 67.3-3.8 1.4-8.3 2.8-10 3.1-1.6.2-3.9.7-5.1 1-10.3 2.3-12.3 2.4-59.5 2.5l-40.8.1v22l41.8-.1c46.1-.2 53.1-.7 69.7-4.8 15.8-3.9 29.7-10.1 44.1-19.6 32-21.4 54.9-56.7 60.9-94.5.4-2.5 1-5.4 1.3-6.5.2-1.1.6-52.1.7-113.3l.2-111.2-4.1-.1c-21.7-.2-212.8-.3-213.6-.1z"/><path d="M438.6 263.6c-20.9 3.9-38.4 20.5-43.1 40.8-6.7 28.7 8.8 55.7 37.5 65.2 8.1 2.6 24.4 2.4 32.5-.5 22.9-8.2 37.3-28.3 37.3-52.3.1-33.6-31-59.3-64.2-53.2zm19.7 22.6c2 .6 3.7 1.3 3.7 1.5 0 .8-12.8 13.3-13.6 13.3-1 0-13.4-12.1-13.4-13.1 0-.7 6.9-2.7 11-3.1 3.5-.4 7.8.1 12.3 1.4zm-32.4 24.2c3.5 3.5 6.3 6.7 6.3 7.1 0 .4-3 3.6-6.6 7.1l-6.6 6.5-1.1-2.8c-1.6-4-1.9-6.2-2-11.4-.1-4.6 1.9-12.9 3.1-12.9.3 0 3.5 2.9 6.9 6.4zm53.7-2.8c2.1 6.5 1.2 19.6-1.5 22.6-.4.4-3.7-2.3-7.4-6l-6.8-6.8 6.6-6.7c3.6-3.7 6.9-6.7 7.3-6.7.4 0 1.2 1.6 1.8 3.6zm-24.2 32c3.6 3.7 6.3 7 6.1 7.4-.8 1.4-12.9 3.1-17.3 2.6-3.6-.5-7.5-1.8-9-3.1-.4-.4 12.1-13.2 13-13.4.3 0 3.6 2.9 7.2 6.5zM74.3 274.7c-24.9 4.3-47.4 22.2-57.1 45.6-16.6 40 2.5 85.1 42.8 101.1 2.5 1 5.4 2 6.5 2.3 7.8 1.8 16.7 2.8 23.8 2.8h8.2v-76.3c0-50.1-.3-76.2-1-76.3-4.8-.6-17.1-.2-23.2.8zm2.3 74.7c-.1 28.9-.4 52.7-.8 53.1-.9.9-7.1-1-13.7-4.3-7-3.6-16.8-12.6-20.9-19.5-11-18.3-10.7-40.8.7-58.4 4.2-6.6 12.5-14.4 18.5-17.6 5.4-2.8 11.6-5.2 14.2-5.5 2-.1 2 0 2 52.2zM602.2 274.4c-.6.8-.9 148.9-.3 151.7 0 .3 4.8.4 10.5.3 26.3-.6 48-11.9 62.7-32.7 14.1-20.1 17.5-45.4 9.3-69.5-4.9-14.6-17.1-29.9-30.6-38.5-5.1-3.3-16.3-8.5-19.7-9.2-.9-.2-3.8-.9-6.6-1.5-6.9-1.6-24.3-2-25.3-.6zm34.7 27.1c5.4 2.6 9.2 5.4 14.1 10.4 17 17.3 20.6 40.7 9.8 63.1-5.9 12.2-22 25.3-34 27.5l-3.4.6V296.8l3.1.6c1.6.4 6.3 2.2 10.4 4.1zM363.8 404.8l-2.8.3v21.5l10.8-.1h10.7l.3 21.7c.2 20.3.1 21.8-1.5 21.9-1 0-6 .1-11 .1H361v10.9c0 10.6.1 10.9 2.3 11h46.2c48.7 0 51.2-.3 61.3-6.4 24.9-14.9 28.3-49.9 6.9-69.3-6.5-5.9-15.6-10.1-23.8-11-6.4-.7-84.9-1.2-90.1-.6zm62.7 42.9c0 11.6-.3 21.5-.7 21.8-.4.4-5.2.8-10.8.9-8.2.1-10-.2-10.1-1.4-.1-2.1-.1-38 0-40.5.1-1.9.8-2 10.9-2h10.7v21.2zm31.3-18.8c17 8.8 16 32.4-1.7 39.8-1.8.8-4.3 1.3-5.4 1.1-2.2-.3-2.2-.6-2.2-21.6V427h2.8c1.5 0 4.4.9 6.5 1.9zM427.7 580c-.9.4-1.2 6-1.2 21.7 0 13.6-.3 21.4-1 21.6-.5.1-15.3.2-32.7.2l-31.8-.1v10.8c0 7.9.3 10.8 1.3 10.9.6 0 32.6.1 71 .1l69.7.1V667H361v22h164v-65.6l-37.2.1c-20.5 0-37.8-.1-38.3-.2-.7-.2-1-8.1-1-21.8 0-13.8-.3-21.5-1-21.6-4-.4-18.8-.3-19.8.1z"/></svg>